:SAMPLES-PER-SECOND 30
:FULLY-SPECIFIED
:DEGREES
522
root  -15.9824 39.3979 -1.38555 172.847 6.62163 179.17
RightUpLeg  -6.90412 -6.25107 -4.31584
RightLeg  6.44089 32.5037 3.91544
RightFoot  4.34432 -3.68448 26.5694
RightToes  -5.8209e-011 0 -3.6325e-017
Spine  2.36048 0.765487 -4.75899
Spine1  23.8425 -3.75467 10.7888
HEad  -27.7241 -42.8133 28.4776
LeftShoulder1  1.26158 -2.54582 -13.912
LeftArm  7.15017 22.5871 -49.0079
LeftForeArm  130.692 -77.2861 -128.69
LeftHand  -1.11066 -3.1344 15.3109
RightShoulder  0.667036 -0.689565 17.214
RightArm  -12.615 10.6564 31.2727
RightForeArm  3.21301 20.0123 6.05472
RightHand  -1.2745 4.7834 -14.7544
LeftUpLeg  -0.0241201 -14.7496 1.38729
LeftLeg  18.5634 5.8885 2.5944
LeftFoot  -11.7075 0.0601878 -3.43937
LeftToes  6.82088e-011 -2.45093e-011 5.71991e-013
523
root  -16.41 39.294 -1.02501 172.033 13.0401 177.427
RightUpLeg  -7.58691 -7.37618 -6.08115
RightLeg  4.36798 38.7978 3.98475
RightFoot  4.46979 -5.54078 38.6047
RightToes  -5.8209e-011 0 -3.6325e-017
Spine  3.76951 1.10066 -9.62409
Spine1  23.3028 -4.05979 11.7248
HEad  -28.3893 -47.3832 30.6895
LeftShoulder1  1.33249 -2.92026 -13.7917
LeftArm  7.27718 21.9873 -47.1526
LeftForeArm  128.128 -77.5861 -126.67
LeftHand  -1.05036 -2.94624 14.8092
RightShoulder  0.621811 -0.896671 17.3922
RightArm  -15.9573 10.3047 33.7241
RightForeArm  1.39956 21.8498 5.19809
RightHand  -1.35363 4.84207 -15.5538
LeftUpLeg  0.666648 -8.24251 0.0959883
LeftLeg  18.4373 5.12758 2.5614
LeftFoot  -11.6475 0.0587827 -3.95378
LeftToes  6.82088e-011 -2.45093e-011 5.71991e-013
524
root  -16.7702 39.114 -0.672985 170.736 19.953 175.352
RightUpLeg  -8.92896 -8.72551 -7.5423
RightLeg  3.34682 40.6343 4.69028
RightFoot  5.69955 -7.96855 50.1673
RightToes  -5.8209e-011 0 -3.6325e-017
Spine  4.45813 1.6224 -13.8596
Spine1  23.0937 -3.71255 11.5144
HEad  -28.1052 -49.83 31.4199
LeftShoulder1  1.49467 -3.65911 -13.9277
LeftArm  8.18961 20.5053 -44.0304
LeftForeArm  125.34 -77.9666 -124.013
LeftHand  -0.97121 -2.89816 13.8037
RightShoulder  0.609942 -0.950906 17.4456
RightArm  -21.0731 8.79782 37.0806
RightForeArm  0.123838 23.7609 5.04852
RightHand  -1.45767 4.88148 -16.654
LeftUpLeg  1.2983 -1.69311 -1.00317
LeftLeg  18.6473 5.4507 2.7291
LeftFoot  -12.1491 0.040576 -4.60382
LeftToes  6.82088e-011 -2.45093e-011 5.71991e-013
525
root  -17.1094 39.0206 -0.358348 169.699 26.6784 174.1
RightUpLeg  -10.3825 -9.05396 -7.34169
RightLeg  2.81975 35.5042 4.84046
RightFoot  8.82711 -9.66738 51.4372
RightToes  -5.8209e-011 0 -3.6325e-017
Spine  4.08256 1.8438 -15.7383
Spine1  23.2641 -3.03646 10.1813
HEad  -26.6359 -50.2542 30.6006
LeftShoulder1  1.60529 -4.04971 -14.359
LeftArm  10.4101 17.2679 -40.3264
LeftForeArm  119.362 -78.7331 -117.629
LeftHand  -0.952172 -3.03629 13.3279
RightShoulder  0.632386 -0.910699 17.9809
RightArm  -26.2162 6.36959 40.0548
RightForeArm  -1.03877 25.101 5.42581
RightHand  -1.49769 4.87833 -17.1012
LeftUpLeg  1.72078 1.663 -1.57401
LeftLeg  18.9118 9.15449 3.70758
LeftFoot  -12.3832 0.0329241 -4.52413
LeftToes  6.82088e-011 -2.45093e-011 5.71991e-013
526
root  -17.4387 39.1053 -0.0151788 169.438 31.8542 173.994
RightUpLeg  -11.2935 -7.7995 -6.1894
RightLeg  2.0425 25.4211 3.6471
RightFoot  11.7849 -8.91994 42.1378
RightToes  -5.8209e-011 0 -3.6325e-017
Spine  3.60526 1.55584 -16.0689
Spine1  23.1586 -2.86998 9.19413
HEad  -24.4565 -49.2725 28.7165
LeftShoulder1  1.5932 -3.96107 -14.4541
LeftArm  12.8188 12.6077 -38.1236
LeftForeArm  108.83 -79.6469 -105.979
LeftHand  -0.889406 -3.11472 12.3498
RightShoulder  0.691793 -0.776797 19.0405
RightArm  -29.7791 3.3587 41.9917
RightForeArm  -3.3642 24.74 5.45465
RightHand  -1.4709 4.75296 -17.0033
LeftUpLeg  1.97105 2.61185 -1.45281
LeftLeg  18.2851 13.3148 4.6558
LeftFoot  -11.5876 0.0602893 -4.27486
LeftToes  6.82088e-011 -2.45093e-011 5.71991e-013
527
root  -17.7145 39.2923 0.373924 169.755 34.8876 174.451
RightUpLeg  -11.4737 -6.35136 -5.61466
RightLeg  1.08706 13.5163 2.07006
RightFoot  12.7345 -6.99348 32.3781
RightToes  -5.8209e-011 0 -3.6325e-017
Spine  3.7031 0.867465 -16.882
Spine1  22.3829 -3.77784 9.7507
HEad  -22.2234 -47.4373 26.2982
LeftShoulder1  1.54077 -3.85631 -14.0074
LeftArm  13.784 8.17407 -38.4092
LeftForeArm  98.2432 -80.1205 -93.3871
LeftHand  -0.679077 -3.06032 9.53792
RightShoulder  0.758559 -0.592832 19.7849
RightArm  -32.8297 -0.0118189 43.3871
RightForeArm  -5.55914 21.9004 5.29316
RightHand  -1.41868 4.45851 -16.8896
LeftUpLeg  2.25198 2.95434 -0.748847
LeftLeg  16.456 15.7626 4.56653
LeftFoot  -10.0623 0.107243 -4.1999
LeftToes  6.82088e-011 -2.45093e-011 5.71991e-013
528
root  -17.9211 39.4775 0.760605 170.352 36.56 175.006
RightUpLeg  -11.3266 -6.08701 -5.962
RightLeg  0.503663 3.17959 1.20726
RightFoot  12.2214 -5.88915 28.1355
RightToes  -5.8209e-011 0 -3.6325e-017
Spine  4.15742 -0.0730022 -18.4351
Spine1  21.2273 -5.4112 11.3223
HEad  -20.5735 -45.0459 24.0458
LeftShoulder1  1.52798 -3.94145 -13.5544
LeftArm  13.1222 4.84279 -40.1749
LeftForeArm  93.8098 -80.2106 -87.0304
LeftHand  -0.452245 -2.9504 6.54607
RightShoulder  0.795174 -0.444583 19.7012
RightArm  -37.5972 -3.53587 44.7651
RightForeArm  -4.43223 16.8354 5.56545
RightHand  -1.29568 3.909 -16.3285
LeftUpLeg  2.48527 3.19661 0.165009
LeftLeg  14.1579 17.1979 3.81488
LeftFoot  -8.41709 0.154313 -4.07707
LeftToes  6.82088e-011 -2.45093e-011 5.71991e-013
529
root  -18.0844 39.6209 1.11896 171.218 38.0079 175.723
RightUpLeg  -11.2767 -6.38351 -6.55666
RightLeg  0.534566 -2.1024 0.915616
RightFoot  11.7655 -5.34819 26.156
RightToes  -5.8209e-011 0 -3.6325e-017
Spine  4.55158 -1.04421 -19.4842
Spine1  20.1977 -6.95424 12.644
HEad  -19.936 -42.4642 22.6345
LeftShoulder1  1.52467 -3.97331 -13.4095
LeftArm  11.9081 1.96182 -42.338
LeftForeArm  94.7984 -80.2334 -87.5436
LeftHand  -0.42225 -2.91326 6.13165
RightShoulder  0.816274 -0.319923 19.307
RightArm  -42.1069 -7.04318 46.0199
RightForeArm  -0.45254 11.0109 4.92043
RightHand  -1.0871 3.29324 -14.6988
LeftUpLeg  2.39954 3.56672 1.1465
LeftLeg  12.3254 18.3425 3.23987
LeftFoot  -6.99669 0.189555 -3.887
LeftToes  6.82088e-011 -2.45093e-011 5.71991e-013
530
root  -18.2107 39.7052 1.4685 172.123 39.731 176.407
RightUpLeg  -11.425 -6.42695 -7.04786
RightLeg  1.09411 -1.77402 0.395929
RightFoot  11.8672 -4.75073 23.2524
RightToes  -5.8209e-011 0 -3.6325e-017
Spine  4.73948 -1.74043 -19.7191
Spine1  19.5666 -7.92499 13.3174
HEad  -20.244 -40.1604 22.0603
LeftShoulder1  1.49625 -3.86118 -13.3259
LeftArm  10.8244 -1.12236 -44.9126
LeftForeArm  95.8952 -80.2011 -89.5449
LeftHand  -0.580749 -3.11273 8.15349
RightShoulder  0.87416 -0.0920059 19.274
RightArm  -44.2975 -10.6144 46.8929
RightForeArm  5.59281 5.80096 2.87594
RightHand  -0.936868 3.24124 -12.8153
LeftUpLeg  1.94095 4.03424 2.04184
LeftLeg  11.398 19.4453 3.12021
LeftFoot  -5.9771 0.220667 -3.94099
LeftToes  6.82088e-011 -2.45093e-011 5.71991e-013
531
root  -18.2862 39.7212 1.83009 172.597 41.8105 176.574
RightUpLeg  -11.7587 -6.11391 -7.81189
RightLeg  2.39388 0.96588 -0.460063
RightFoot  11.6933 -4.1065 20.3567
RightToes  -5.8209e-011 0 -3.6325e-017
Spine  4.73735 -1.98917 -19.7868
Spine1  19.4027 -8.31744 13.6655
HEad  -21.0606 -38.2739 21.7278
LeftShoulder1  1.47162 -3.7958 -13.1548
LeftArm  9.71064 -4.04109 -48.1175
LeftForeArm  95.0853 -80.1434 -89.9866
LeftHand  -0.755074 -3.34458 10.2833
RightShoulder  0.980787 0.276372 19.6096
RightArm  -46.2362 -14.3634 47.5889
RightForeArm  14.8116 1.5374 0.568222
RightHand  -0.959729 3.90641 -12.2002
LeftUpLeg  1.35202 4.31327 2.5826
LeftLeg  11.2877 20.9973 3.36624
LeftFoot  -5.33942 0.257521 -4.30019
LeftToes  6.82088e-011 -2.45093e-011 5.71991e-013
532
root  -18.311 39.6836 2.20351 172.414 44.2993 176.104
RightUpLeg  -12.1665 -5.14237 -9.24712
RightLeg  4.80891 2.04262 -1.19809
RightFoot  10.5441 -3.62249 18.9644
RightToes  -5.8209e-011 0 -3.6325e-017
Spine  4.60638 -1.9434 -19.8797
Spine1  19.7117 -8.34359 13.7192
HEad  -21.9968 -36.4661 21.1437
LeftShoulder1  1.45997 -3.7748 -13.042
LeftArm  8.45111 -6.0165 -51.5929
LeftForeArm  95.0099 -80.1 -90.8258
LeftHand  -0.85235 -3.34308 11.5646
RightShoulder  1.08948 0.637168 19.9939
RightArm  -47.9465 -17.9134 48.6672
RightForeArm  24.4277 -1.70739 -1.46075
RightHand  -1.05835 4.50095 -12.6578
LeftUpLeg  0.932996 4.4774 2.75498
LeftLeg  11.7078 23.1859 3.91623
LeftFoot  -4.91804 0.30068 -4.83156
LeftToes  6.82088e-011 -2.45093e-011 5.71991e-013
533
root  -18.2972 39.6212 2.58445 171.725 47.0384 175.294
RightUpLeg  -12.3374 -2.97728 -11.3527
RightLeg  8.04696 -0.381895 -1.63843
RightFoot  8.59337 -3.18359 18.3103
RightToes  -5.8209e-011 0 -3.6325e-017
Spine  4.48684 -1.93212 -19.6855
Spine1  20.4113 -8.30003 13.2726
HEad  -22.928 -34.3723 20.1782
LeftShoulder1  1.42444 -3.5868 -13.0756
LeftArm  7.27186 -6.67227 -54.7607
LeftForeArm  98.1253 -80.0577 -94.2896
LeftHand  -0.945961 -3.35219 12.7769
RightShoulder  1.1552 0.844558 20.2644
RightArm  -49.0615 -20.8055 50.3008
RightForeArm  32.0277 -4.03006 -2.87666
RightHand  -1.05172 4.55352 -12.5144
LeftUpLeg  0.807954 4.64311 2.83201
LeftLeg  12.3652 25.6163 4.62429
LeftFoot  -4.58437 0.34752 -5.41964
LeftToes  6.82088e-011 -2.45093e-011 5.71991e-013
534
root  -18.2502 39.5626 2.97238 170.746 49.6383 174.358
RightUpLeg  -11.9411 -1.14289 -13.6832
RightLeg  11.1012 -4.76353 -2.0709
RightFoot  6.66838 -2.66128 16.9668
RightToes  -5.8209e-011 0 -3.6325e-017
Spine  4.47566 -2.17339 -19.0813
Spine1  21.2964 -8.39907 12.3607
HEad  -23.7895 -32.0604 18.8709
LeftShoulder1  1.37408 -3.27944 -13.2595
LeftArm  6.354 -6.08899 -57.282
LeftForeArm  103.407 -79.952 -99.547
LeftHand  -1.08459 -3.60916 14.2017
RightShoulder  1.1849 0.930349 20.4291
RightArm  -49.7147 -23.0199 52.2347
RightForeArm  36.7065 -5.19104 -3.55063
RightHand  -0.905112 4.26672 -11.1183
LeftUpLeg  0.98871 4.86219 2.99361
LeftLeg  12.8435 27.669 5.15717
LeftFoot  -4.221 0.388009 -5.82879
LeftToes  6.82088e-011 -2.45093e-011 5.71991e-013
535
root  -18.151 39.5067 3.36139 169.534 52.0642 173.27
RightUpLeg  -11.0434 -2.00981 -15.6826
RightLeg  13.674 -8.92178 -2.86603
RightFoot  5.444 -2.16623 14.8645
RightToes  -5.8209e-011 0 -3.6325e-017
Spine  4.4794 -2.58283 -18.1495
Spine1  22.1616 -8.52646 11.1009
HEad  -24.3203 -29.8871 17.368
LeftShoulder1  1.36522 -3.11025 -13.6799
LeftArm  5.87363 -4.54083 -59.1032
LeftForeArm  107.626 -79.7871 -103.952
LeftHand  -1.19811 -3.85351 15.2542
RightShoulder  1.21104 1.01273 20.5252
RightArm  -50.2051 -24.8245 54.145
RightForeArm  37.8901 -5.04584 -3.53336
RightHand  -0.691613 3.77828 -8.99628
LeftUpLeg  1.44461 5.14965 3.2472
LeftLeg  13.0712 29.4743 5.47161
LeftFoot  -3.77133 0.432506 -6.19138
LeftToes  6.82088e-011 -2.45093e-011 5.71991e-013
536
root  -17.9607 39.4244 3.75973 167.977 54.7355 171.821
RightUpLeg  -9.9066 -4.78425 -17.2613
RightLeg  16.3339 -13.0691 -4.4609
RightFoot  4.49988 -1.83529 13.3568
RightToes  -5.8209e-011 0 -3.6325e-017
Spine  4.26263 -2.87872 -17.1925
Spine1  22.9394 -8.43246 9.72225
HEad  -24.2711 -28.0297 15.9552
LeftShoulder1  1.39777 -3.0604 -14.3981
LeftArm  6.19494 -2.30112 -60.3882
LeftForeArm  108.74 -79.674 -105.717
LeftHand  -1.23536 -3.83634 15.7402
RightShoulder  1.23173 1.08181 20.5744
RightArm  -50.6799 -26.226 55.714
RightForeArm  36.0307 -5.12577 -3.28502
RightHand  -0.457884 3.16605 -6.43622
LeftUpLeg  2.15273 5.57102 3.59022
LeftLeg  13.3261 31.6585 5.82179
LeftFoot  -3.29449 0.517511 -7.06913
LeftToes  6.82088e-011 -2.45093e-011 5.71991e-013
